<?xml version="1.0" encoding="utf-8"?>
<svg viewBox="0 0 500 500" xmlns="http://www.w3.org/2000/svg">
  <path fill="#FFF"
    d="M 228.479 190.352 C 229.511 189.659 230.638 189.065 231.577 188.254 C 234.032 186.134 235.537 186.144 237.945 188.303 C 240.824 190.885 243.867 193.291 246.659 195.962 C 249.125 198.321 251.451 200.821 253.629 203.449 C 257.383 207.979 261.109 212.547 264.59 217.287 C 268.257 222.28 270.719 227.911 272.817 233.752 C 274.177 237.538 274.984 241.346 274.932 245.304 C 274.877 249.446 274.689 253.544 273.152 257.57 C 271.656 261.492 270.231 265.454 267.805 268.841 C 263.474 274.888 258.067 279.835 251.011 282.561 C 247.994 283.727 244.808 284.502 241.649 285.243 C 238.971 285.87 238.73 286.056 238.58 288.831 C 238.441 291.372 238.357 293.948 237.85 296.427 C 237.409 298.584 236.448 300.641 235.651 302.717 C 233.638 307.955 230.758 312.644 226.731 316.593 C 223.201 320.055 219.048 322.527 214.658 324.778 C 208.748 327.809 202.467 328.606 196.047 328.37 C 192.322 328.233 188.37 327.892 184.982 326.511 C 180.413 324.649 176.06 322.015 172.037 319.125 C 167.843 316.112 163.897 312.647 160.302 308.935 C 155.816 304.302 151.645 299.341 148.286 293.769 C 146.895 291.461 145.157 289.347 143.918 286.968 C 142.115 283.505 140.508 279.929 139.023 276.316 C 137.44 272.463 136.059 268.524 134.671 264.594 C 134.285 263.504 134.197 262.311 133.962 261.167 C 132.851 255.761 131.259 250.452 131.345 244.827 C 131.399 241.324 130.827 237.813 130.847 234.307 C 130.869 230.545 130.991 226.746 131.551 223.035 C 132.171 218.934 133.173 214.868 134.31 210.873 C 135.626 206.255 137.163 201.69 138.802 197.173 C 140.625 192.151 142.899 187.334 145.984 182.922 C 148.315 179.588 150.491 176.146 152.736 172.753 C 152.792 172.668 152.836 172.567 152.91 172.502 C 157.848 168.24 161.028 162.308 166.423 158.452 C 171.51 154.816 176.247 150.654 181.515 147.32 C 185.742 144.644 190.52 142.833 195.081 140.694 C 197.233 139.683 199.421 138.749 201.64 137.893 C 202.766 137.459 204.001 137.317 205.17 136.985 C 212.193 134.987 219.335 133.768 226.633 133.312 C 233.932 132.856 241.172 133.109 248.45 133.854 C 254.168 134.439 259.691 135.739 265.149 137.329 C 271.886 139.291 278.21 142.309 284.444 145.526 C 290.22 148.507 295.493 152.256 300.461 156.349 C 308.422 162.907 315.291 170.483 321.022 179.161 C 324.045 183.738 326.728 188.452 328.907 193.416 C 330.814 197.757 333.06 201.999 333.992 206.752 C 334.615 209.929 335.75 213.006 336.363 216.184 C 337.017 219.579 337.499 223.028 337.743 226.476 C 338.038 230.64 338.211 234.835 338.057 239.003 C 337.885 243.625 337.303 248.232 336.866 252.843 C 336.341 258.394 334.97 263.774 333.039 268.968 C 331.222 273.854 329.028 278.604 326.932 283.385 C 324.757 288.347 321.798 292.855 318.455 297.086 C 315.149 301.271 311.888 305.533 308.18 309.347 C 303.9 313.75 299.422 318.006 294.117 321.265 C 291.521 322.862 289.18 324.881 286.555 326.423 C 284.026 327.909 281.318 329.115 278.619 330.281 C 275.493 331.633 272.286 332.798 269.121 334.062 C 268.23 334.418 267.393 334.944 266.478 335.204 C 263.276 336.111 260.066 337.01 256.825 337.764 C 255.062 338.174 253.367 336.747 253.019 334.83 C 252.654 332.83 253.913 330.964 255.692 330.471 C 258.563 329.676 261.385 328.707 264.23 327.82 C 265.976 327.275 267.769 326.853 269.47 326.193 C 274.932 324.073 280.202 321.607 285.092 318.292 C 289.176 315.523 293.43 313.048 296.937 309.484 C 299.353 307.029 302.209 304.995 304.539 302.47 C 308.47 298.21 312.286 293.83 315.166 288.73 C 316.412 286.524 318.039 284.515 319.135 282.244 C 321.072 278.226 322.747 274.079 324.509 269.976 C 325.426 267.84 326.483 265.739 327.138 263.521 C 328.102 260.253 328.93 256.925 329.518 253.57 C 330.805 246.223 331.178 238.806 330.791 231.347 C 330.522 226.153 330.13 220.981 328.815 215.927 C 327.679 211.562 326.495 207.248 324.778 203.021 C 322.802 198.156 321.004 193.215 318.237 188.76 C 315.535 184.413 312.631 180.159 309.453 176.151 C 306.683 172.657 303.506 169.463 300.33 166.317 C 295.944 161.974 291.103 158.184 285.7 155.143 C 282.38 153.274 279.189 151.151 275.771 149.489 C 272.82 148.053 269.522 147.329 266.574 145.888 C 262.679 143.985 258.555 142.982 254.376 142.184 C 250.535 141.45 246.636 141.005 242.753 140.509 C 241.242 140.316 239.705 140.273 238.179 140.263 C 230.224 140.21 222.264 140.19 214.491 142.258 C 211.056 143.171 207.549 143.927 204.246 145.2 C 199.051 147.203 193.802 149.223 188.942 151.899 C 183.667 154.804 178.519 158.111 173.855 161.905 C 169.264 165.639 164.74 169.591 161.227 174.495 C 158.624 178.129 155.706 181.546 153.253 185.274 C 149.586 190.848 146.512 196.768 144.308 203.094 C 143.525 205.341 142.83 207.624 142.199 209.92 C 141.39 212.858 140.45 215.787 139.987 218.786 C 139.011 225.107 137.832 231.446 138.255 237.88 C 138.538 242.176 139.177 246.45 139.694 250.73 C 139.967 253.001 140.234 255.278 140.666 257.522 C 140.981 259.159 141.534 260.753 142.028 262.35 C 142.883 265.111 143.701 267.885 144.668 270.606 C 146.357 275.359 148.432 279.939 151.177 284.189 C 153.523 287.82 155.661 291.616 158.316 295.006 C 162.359 300.168 166.568 305.236 171.856 309.241 C 175.216 311.784 178.394 314.644 182.007 316.76 C 187.553 320.008 193.567 321.811 200.198 321.11 C 208.522 320.23 215.624 316.83 221.601 311.123 C 225.223 307.664 227.773 303.367 229.217 298.582 C 230.177 295.401 230.7 292.062 231.135 288.757 C 231.424 286.569 230.958 286.141 228.757 285.555 C 226.296 284.901 223.703 284.625 221.35 283.713 C 218.242 282.509 215.059 281.203 212.368 279.292 C 209.12 276.986 206.15 274.189 203.433 271.259 C 200.485 268.078 198.461 264.236 196.951 260.123 C 195.459 256.055 194.703 251.83 194.618 247.577 C 194.545 243.998 194.976 240.34 195.725 236.832 C 196.452 233.425 197.742 230.116 199.027 226.859 C 199.802 224.893 200.942 223.046 202.089 221.256 C 204.148 218.04 206.186 214.791 208.513 211.771 C 211.063 208.464 213.788 205.295 216.676 202.279 C 220.265 198.529 224.092 195.008 227.809 191.381 C 228.059 191.136 228.245 190.826 228.473 190.442 C 228.486 190.337 228.487 190.354 228.479 190.352 M 230.647 259.98 C 230.56 256.673 230.497 253.365 230.379 250.059 C 230.3 247.859 233.753 245.314 235.778 246.127 C 235.873 246.166 235.96 246.22 236.036 246.288 C 237.464 247.54 238.709 248.74 238.676 250.981 C 238.554 259.394 238.64 267.811 238.609 276.225 C 238.604 277.583 239.028 278.411 240.476 277.947 C 243.706 276.912 247.155 276.22 250.061 274.582 C 258.602 269.767 264.252 262.674 266.399 252.839 C 267.839 246.244 267 240.033 264.766 233.834 C 262.687 228.064 259.328 223.024 255.754 218.138 C 250.137 210.46 243.552 203.652 236.438 197.352 C 234.679 195.794 234.328 195.739 232.637 197.338 C 229.2 200.586 225.686 203.775 222.487 207.249 C 216.447 213.809 210.824 220.684 206.708 228.704 C 204.521 232.966 202.726 237.321 202.108 242.056 C 201.027 250.342 203.006 257.916 207.825 264.76 C 210.29 268.262 213.327 271.151 216.907 273.468 C 220.449 275.76 224.23 277.502 228.484 277.933 C 230.306 278.118 230.638 277.739 230.642 275.893 C 230.653 270.69 230.646 265.488 230.647 259.98 Z"
    style="opacity: 0.2;" />
</svg>